<svg xmlns="http://www.w3.org/2000/svg" viewBox="0 0 512 512" width="512" height="512" role="img" aria-label="HomeCam">
  <defs>
    <linearGradient id="bg" x1="128" y1="72" x2="384" y2="444" gradientUnits="userSpaceOnUse">
      <stop offset="0" stop-color="#3a352b"/>
      <stop offset="1" stop-color="#211f1b"/>
    </linearGradient>
  </defs>

  <circle cx="256" cy="256" r="238" fill="url(#bg)"/>
  <circle cx="256" cy="256" r="231" fill="none" stroke="#7d7258" stroke-width="8" stroke-opacity="0.65"/>

  <path d="M112 184 L256 82 L400 184" fill="none" stroke="#c4b48c" stroke-width="22" stroke-linecap="round" stroke-linejoin="round"/>
  <path d="M352 116 H382 V166" fill="none" stroke="#c4b48c" stroke-width="18" stroke-linecap="round" stroke-linejoin="round"/>

  <path d="M396 242 L454 205 C465 198 478 206 478 219 V342 C478 355 465 362 454 355 L396 318 Z" fill="#fffdf7"/>
  <rect x="82" y="184" width="318" height="174" rx="32" fill="none" stroke="#fffdf7" stroke-width="20"/>

  <rect x="116" y="222" width="104" height="118" rx="10" fill="none" stroke="#2f5fe0" stroke-width="13"/>
  <circle cx="168" cy="265" r="25" fill="#fffdf7"/>
  <path d="M124 329 C130 297 147 283 168 283 C189 283 206 297 212 329 Z" fill="#fffdf7"/>

  <rect x="264" y="262" width="108" height="86" rx="11" fill="none" stroke="#f08536" stroke-width="13"/>
  <ellipse cx="317" cy="326" rx="27" ry="30" fill="#fffdf7"/>
  <circle cx="316" cy="294" r="22" fill="#fffdf7"/>
  <path d="M300 279 L304 253 L323 275 Z" fill="#fffdf7"/>
  <path d="M329 276 L346 256 L343 284 Z" fill="#fffdf7"/>
  <path d="M343 331 C368 337 371 303 348 301" fill="none" stroke="#fffdf7" stroke-width="10" stroke-linecap="round"/>

  <circle cx="432" cy="106" r="17" fill="#f08536" stroke="#fffdf7" stroke-width="5"/>
</svg>
